<svg width="960" height="214" viewBox="0 0 960 214" fill="none" xmlns="http://www.w3.org/2000/svg">
<path opacity="0.4" fill-rule="evenodd" clip-rule="evenodd" d="M-77 62.4141C-77 27.9438 -49.0562 0 -14.5858 0H490.526C514.327 0 533.621 19.2945 533.621 43.0955C533.621 66.8964 552.916 86.1909 576.717 86.1909H659.327C674.334 86.1909 686.5 98.3569 686.5 113.365C686.5 128.372 698.666 140.538 713.674 140.538H949.485C969.651 140.538 986 156.886 986 177.052C986 197.219 969.651 213.567 949.485 213.567H632.876C619.041 213.567 607.826 202.351 607.826 188.516C607.826 174.681 596.61 163.466 582.775 163.466H327.645C316.975 163.466 308.326 154.816 308.326 144.147C308.326 133.478 299.677 124.828 289.008 124.828H-14.5858C-49.0562 124.828 -77 96.8845 -77 62.4141Z" fill="white"/>
</svg>
