<svg width="812" height="990" viewBox="0 0 812 990" fill="none" xmlns="http://www.w3.org/2000/svg">
<path d="M620.141 522.181C575.994 515.939 541.006 502.19 523.607 494.294C516.952 491.274 514.765 483.203 518.59 476.976V476.976C522.247 471.021 530 469.092 536.022 472.638L620.141 522.181ZM620.141 522.181C662.619 528.861 729 435.034 729 435.034M729 435.034L797.154 391.087M729 435.034L729.023 347.981" stroke="#8A5C38" stroke-width="29" stroke-linecap="round"/>
<ellipse cx="346.527" cy="171.539" rx="85.7474" ry="161.465" transform="rotate(48.2047 346.527 171.539)" fill="#333D42"/>
<ellipse cx="288" cy="928" rx="236" ry="62" fill="#F7F0D4"/>
<path d="M629 769.281C629 1043.57 157 1043.57 157 769.281C157 623.323 262.661 505 393 505C523.339 505 629 623.323 629 769.281Z" fill="white"/>
<path fill-rule="evenodd" clip-rule="evenodd" d="M493.977 926.503C505.646 921.362 497.502 907.52 485.029 910.171C363.593 935.983 216 876.064 216 730.415C216 713.229 217.625 696.468 220.711 680.313C223.174 667.426 207.882 658.7 203.015 670.884C191.437 699.869 185 731.989 185 765.792C185 927.227 370.719 980.797 493.977 926.503Z" fill="#F7F0D4"/>
<path d="M555 482.933C555 679.022 231 679.022 231 482.933C231 378.588 303.53 294 393 294C482.47 294 555 378.588 555 482.933Z" fill="white"/>
<path fill-rule="evenodd" clip-rule="evenodd" d="M383.946 613.775C396.938 614.42 394.427 599.245 381.723 596.455C317.025 582.249 262 534.742 262 453.933C262 443.892 249.956 440.106 248.398 450.024C246.823 460.051 246 470.383 246 480.939C246 566.002 313.585 610.281 383.946 613.775Z" fill="#F7F0D4"/>
<path fill-rule="evenodd" clip-rule="evenodd" d="M496.998 270.5C477.112 260.07 468.901 273.736 458.387 291.234C446.428 311.138 431.489 336 392.999 336C355.713 336 337.777 316.752 323.58 301.517C310.236 287.198 300.196 276.423 280.498 288.5C261.051 300.425 246.497 313.188 246.498 336C246.5 404 306.843 422 392.999 422C434.144 422 469.659 416.846 494.924 404.555C495.401 404.323 495.971 404.496 496.235 404.956C509.921 428.796 530.273 456.969 554.498 467.833C581.433 479.913 624.382 475.628 645.032 472.554C652.307 471.472 657.976 465.962 659.694 458.81L667.238 427.415C670.862 412.336 655.584 398.812 640.556 402.639C619.206 408.076 592.31 412.243 572.067 406.353C556.543 401.835 539.92 389.944 526.763 378.724C526.388 378.404 526.307 377.858 526.563 377.436C526.823 377.008 527.35 376.827 527.812 377.02C553.762 387.83 589.459 398.744 616.601 391.893C645.223 384.668 676.261 354.675 690.555 339.459C695.592 334.098 696.623 326.26 693.536 319.583L679.987 290.275C673.479 276.198 653.108 275.062 643.691 287.383C630.312 304.887 611.795 324.834 592.262 332.765C576.262 339.261 554.062 339.935 536.106 339.029C535.597 339.003 535.194 338.597 535.16 338.088C535.114 337.397 535.06 336.701 534.998 336C532.383 306.544 523.187 284.236 496.998 270.5Z" fill="#ED1B24"/>
<path d="M517.988 231.463C525.189 377.185 277.035 394.298 269.834 248.576C260.883 67.4319 509.037 50.3189 517.988 231.463Z" fill="white"/>
<path fill-rule="evenodd" clip-rule="evenodd" d="M387.047 336.758C399.902 336.821 395.943 321.361 383.445 318.353C344.033 308.87 311.484 280.619 309.082 231.996C308.325 216.675 309.634 202.671 312.632 190.013C315.57 177.607 302.495 164.805 296.504 176.059C286.365 195.108 280.824 218.736 282.21 246.782C285.214 307.557 335.314 336.504 387.047 336.758Z" fill="#F7F0D4"/>
<path d="M406.634 201.891C408.031 209.495 398.01 203.475 390.406 204.872C382.801 206.269 375.574 215.458 374.177 207.853C372.78 200.249 379.368 187.582 386.973 186.185C394.577 184.788 405.237 194.286 406.634 201.891Z" fill="#333D42"/>
<path d="M462.594 187.45C463.824 194.145 455.003 188.845 448.308 190.075C441.614 191.305 435.252 199.394 434.022 192.7C432.792 186.005 438.591 174.854 445.286 173.624C451.98 172.395 461.364 180.756 462.594 187.45Z" fill="#333D42"/>
<path d="M557.397 182.413C561.99 181.642 563.972 188.013 559.752 189.983L458.237 237.368C448.198 242.054 435.494 242.217 430.353 232.403C429.101 230.012 428.054 227.235 427.414 224.037C425.874 216.338 427.893 210.999 430.222 207.626C432.719 204.011 437.139 202.623 441.472 201.895L557.397 182.413Z" fill="#FC8350"/>
<path d="M223 7.30127C281.504 -1.19911 293.5 32.8013 353.5 84.3013C304 97.3013 269.5 211.301 269.5 211.301L181.638 164.635C153.1 149.477 138.354 116.534 151.216 86.8893C166.273 52.1827 190.458 12.0294 223 7.30127Z" fill="#333D42"/>
<circle cx="453" cy="474" r="12" fill="#333D42"/>
<circle cx="460" cy="517" r="12" fill="#333D42"/>
<circle cx="454" cy="563" r="12" fill="#333D42"/>
<path d="M169.5 507C214.081 507.691 250.78 499.544 269.195 494.447C276.238 492.497 279.652 484.864 276.841 478.118V478.118C274.153 471.667 266.794 468.557 260.295 471.125L169.5 507ZM169.5 507C126.5 507 75.5 404 75.5 404M75.5 404L15 350M75.5 404L89 318" stroke="#8A5C38" stroke-width="29" stroke-linecap="round"/>
</svg>
